#Comment line ignore any data following # character 
#Hierarchical Translation and Rotation (.htr) file 
[Header]	
#Header keywords are followed by a single value 
FileType HTR		#Single word string
DataType HTRS		#Translation followed by rotation and scale data
FileVersion 1		#integer
NumSegments 23		#integer
NumFrames 6		#integer
DataFrameRate 30		#integer, data frame rate in this file
EulerRotationOrder ZYX
CalibrationUnits mm
RotationUnits Degrees
GlobalAxisofGravity Y
BoneLengthAxis Y
ScaleFactor 1.00
[SegmentNames&Hierarchy]
#CHILD	PARENT
MASTER GLOBAL
weapon MASTER
arm_lock_bottom_part1 weapon
arm_lock_bottom_part2 weapon
arm_lock_bottom_part3 weapon
arm_lock_bottom_part4 weapon
arm_lock_top_part1 weapon
arm_lock_top_part2 weapon
arm_lock_top_part3 weapon
front_lower_left_part1 weapon
front_lower_right_part1 weapon
front_top_left_part weapon
front_top_right_part1 weapon
scope_part1 weapon
scope_part2 weapon
front_lower_left_part2 front_lower_left_part1
front_lower_left_part3 front_lower_left_part2
front_lower_right_part2 front_lower_right_part1
front_lower_right_part3 front_lower_right_part2
front_top_left_part2 front_top_left_part
front_top_left_part3 front_top_left_part2
front_top_right_part2 front_top_right_part1
front_top_right_part3 front_top_right_part2
[BasePosition]
#SegmentName Tx, Ty, Tz, Rx, Ry, Rz, BoneLength
MASTER 0.000000 0.000000 0.000000 -90.000000 0.000000 0.000000 10.000000 
weapon 0.000000 0.000000 0.000000 0.000000 0.000000 0.000000 10.000000 
arm_lock_bottom_part1 0.000000 0.000000 0.000000 0.000000 0.000000 0.000000 10.000000 
arm_lock_bottom_part2 0.000000 0.000000 0.000000 0.000000 0.000000 0.000000 10.000000 
arm_lock_bottom_part3 0.000000 0.000000 0.000000 0.000000 0.000000 0.000000 10.000000 
arm_lock_bottom_part4 0.000000 0.000000 0.000000 0.000000 0.000000 0.000000 10.000000 
arm_lock_top_part1 0.000000 0.000000 0.000000 0.000000 0.000000 0.000000 10.000000 
arm_lock_top_part2 0.000000 0.000000 0.000000 0.000000 0.000000 0.000000 10.000000 
arm_lock_top_part3 0.000000 0.000000 0.000000 0.000000 0.000000 0.000000 10.000000 
front_lower_left_part1 0.000000 0.000000 0.000000 0.000000 0.000000 0.000000 10.000000 
front_lower_right_part1 0.000000 0.000000 0.000000 0.000000 0.000000 0.000000 10.000000 
front_top_left_part 0.000000 0.000000 0.000000 0.000000 0.000000 0.000000 10.000000 
front_top_right_part1 0.000000 0.000000 0.000000 0.000000 0.000000 0.000000 10.000000 
scope_part1 0.000000 0.000000 0.000000 0.000000 0.000000 0.000000 10.000000 
scope_part2 0.000000 0.000000 0.000000 0.000000 0.000000 0.000000 10.000000 
front_lower_left_part2 0.000000 0.000000 0.000000 0.000000 0.000000 0.000000 10.000000 
front_lower_left_part3 0.000000 0.000000 0.000000 0.000000 0.000000 0.000000 10.000000 
front_lower_right_part2 0.000000 0.000000 0.000000 0.000000 0.000000 0.000000 10.000000 
front_lower_right_part3 0.000000 0.000000 0.000000 0.000000 0.000000 0.000000 10.000000 
front_top_left_part2 0.000000 0.000000 0.000000 0.000000 0.000000 0.000000 10.000000 
front_top_left_part3 0.000000 0.000000 0.000000 0.000000 0.000000 0.000000 10.000000 
front_top_right_part2 0.000000 0.000000 0.000000 0.000000 0.000000 0.000000 10.000000 
front_top_right_part3 0.000000 0.000000 0.000000 0.000000 0.000000 0.000000 10.000000 
#Beginning of Data. Separated by tabs
#Fr	Tx	Ty	Tz	Rx	Ry	Rz	SF
[MASTER]
57 0.000000 -0.000019 0.000002 0.002458 -0.000000 0.000000 0.000019
58 0.000000 -0.000019 0.000002 0.002458 -0.000000 0.000000 0.000019
59 0.000000 -0.000019 0.000002 0.002458 -0.000000 0.000000 0.000019
60 0.000000 -0.000019 0.000002 0.002458 -0.000000 0.000000 0.000019
61 0.000000 -0.000019 0.000002 0.002458 -0.000000 0.000000 0.000019
62 0.000000 -0.000019 0.000002 0.002458 -0.000000 0.000000 0.000019
[weapon]
57 10.182457 -168.977844 -13.084106 -0.002473 -0.000000 -0.000020 169.789246
58 10.182457 -168.977844 -13.084106 -0.002473 -0.000000 -0.000020 169.789246
59 10.182457 -168.977844 -13.084106 -0.002473 -0.000000 -0.000020 169.789246
60 10.182457 -168.977844 -13.084106 -0.002473 -0.000000 -0.000020 169.789246
61 10.182457 -168.977844 -13.084106 -0.002473 -0.000000 -0.000020 169.789246
62 10.182457 -168.977844 -13.084106 -0.002473 -0.000000 -0.000020 169.789246
[arm_lock_bottom_part1]
57 -48.820000 98.566208 -83.498993 179.999985 0.000004 9.388626 138.096970
58 -48.820000 98.566208 -83.498993 179.999985 0.000004 9.388626 138.096970
59 -48.820000 98.566208 -83.498993 179.999985 0.000004 9.388626 138.096970
60 -48.820000 98.566208 -83.498993 179.999985 0.000004 9.388626 138.096970
61 -48.820019 98.566170 -83.498993 179.999985 0.000004 9.388626 138.096939
62 -48.820000 98.566208 -83.498993 179.999985 0.000004 9.388626 138.096970
[arm_lock_bottom_part2]
57 -49.022766 58.782005 -78.526535 -179.999985 -0.000001 6.576765 109.658440
58 -49.022766 58.782005 -78.526535 -179.999985 -0.000001 6.576765 109.658440
59 -49.022766 58.782005 -78.526535 -179.999985 -0.000001 6.576765 109.658440
60 -49.022766 58.782005 -78.526535 -179.999985 -0.000001 6.576765 109.658440
61 -49.022766 58.781967 -78.526535 -179.999985 -0.000001 6.576765 109.658417
62 -49.022766 58.782005 -78.526535 -179.999985 -0.000001 6.576765 109.658440
[arm_lock_bottom_part3]
57 -51.266422 -16.798210 -66.920395 -179.999985 -0.000001 4.326176 85.957924
58 -51.266422 -16.798210 -66.920395 -179.999985 -0.000001 4.326176 85.957924
59 -51.266422 -16.798210 -66.920395 -179.999985 -0.000001 4.326176 85.957924
60 -51.266422 -16.798210 -66.920395 -179.999985 -0.000001 4.326176 85.957924
61 -51.266438 -16.798248 -66.920395 -179.999985 -0.000001 4.326176 85.957939
62 -51.266422 -16.798210 -66.920395 -179.999985 -0.000001 4.326176 85.957924
[arm_lock_bottom_part4]
57 -40.078102 -93.503113 -59.330063 -179.999985 -0.000000 1.322129 117.767326
58 -40.078102 -93.503113 -59.330063 -179.999985 -0.000000 1.322129 117.767326
59 -40.078102 -93.503113 -59.330063 -179.999985 -0.000000 1.322129 117.767326
60 -40.078102 -93.503113 -59.330063 -179.999985 -0.000000 1.322129 117.767326
61 -40.078102 -93.503136 -59.330063 -179.999985 -0.000000 1.322129 117.767334
62 -40.078102 -93.503113 -59.330063 -179.999985 -0.000000 1.322129 117.767326
[arm_lock_top_part1]
57 -47.532558 61.554489 78.379364 0.000000 -0.000000 -9.999999 110.415680
58 -47.532558 61.554489 78.379364 0.000000 -0.000000 -9.999999 110.415680
59 -47.532558 61.554489 78.379364 0.000000 -0.000000 -9.999999 110.415680
60 -47.532558 61.554489 78.379364 0.000000 -0.000000 -9.999999 110.415680
61 -47.532558 61.554451 78.379364 0.000000 -0.000000 -9.999999 110.415672
62 -47.532558 61.554489 78.379364 0.000000 -0.000000 -9.999999 110.415680
[arm_lock_top_part2]
57 -45.622673 13.709908 63.393555 0.000000 -0.000000 -7.722126 79.297745
58 -45.622673 13.709908 63.393555 0.000000 -0.000000 -7.722126 79.297745
59 -45.622673 13.709908 63.393555 0.000000 -0.000000 -7.722126 79.297745
60 -45.622673 13.709908 63.393555 0.000000 -0.000000 -7.722126 79.297745
61 -45.622673 13.709869 63.393555 0.000000 -0.000000 -7.722126 79.297745
62 -45.622673 13.709908 63.393555 0.000000 -0.000000 -7.722126 79.297745
[arm_lock_top_part3]
57 -43.788544 -73.747208 72.061615 0.000000 0.000000 -4.533067 112.022163
58 -43.788544 -73.747208 72.061615 0.000000 0.000000 -4.533067 112.022163
59 -43.788544 -73.747208 72.061615 0.000000 0.000000 -4.533067 112.022163
60 -43.788544 -73.747208 72.061615 0.000000 0.000000 -4.533067 112.022163
61 -43.788544 -73.747231 72.061615 0.000000 0.000000 -4.533067 112.022171
62 -43.788544 -73.747208 72.061615 0.000000 0.000000 -4.533067 112.022163
[front_lower_left_part1]
57 -46.798534 475.071045 -43.538895 -17.980034 0.000051 32.194077 479.351898
58 -46.798534 475.071045 -43.538895 -17.980034 0.000051 32.194077 479.351898
59 -46.798534 475.071045 -43.538895 -17.980036 0.000052 32.194084 479.351898
60 -46.798534 475.071045 -43.538895 -17.980036 0.000052 32.194084 479.351898
61 -46.798515 475.070953 -43.538895 -17.980034 0.000051 32.194073 479.351807
62 -46.798534 475.071045 -43.538895 -17.980034 0.000051 32.194073 479.351898
[front_lower_right_part1]
57 26.433468 475.070984 -43.538742 -17.167988 -0.000012 -27.317902 477.793671
58 26.433468 475.070984 -43.538742 -17.167982 -0.000012 -27.317894 477.793671
59 26.433468 475.070984 -43.538742 -17.167982 -0.000012 -27.317894 477.793671
60 26.433468 475.070984 -43.538742 -17.167982 -0.000012 -27.317894 477.793671
61 26.433447 475.070862 -43.538742 -17.167982 -0.000012 -27.317896 477.793549
62 26.433468 475.070984 -43.538742 -17.167988 -0.000012 -27.317902 477.793671
[front_top_left_part]
57 -47.897224 494.788910 7.030945 -0.000000 0.000003 -0.000001 497.151520
58 -47.897224 494.788910 7.030945 -0.000000 0.000003 -0.000001 497.151520
59 -47.897224 494.788910 7.030945 -0.000000 0.000003 -0.000001 497.151520
60 -47.897224 494.788910 7.030945 -0.000000 0.000003 -0.000001 497.151520
61 -47.897205 494.788879 7.030945 -0.000000 0.000003 -0.000001 497.151489
62 -47.897224 494.788910 7.030945 -0.000000 0.000003 -0.000001 497.151520
[front_top_right_part1]
57 27.532139 494.788910 7.031097 0.000000 -0.000000 -0.000000 495.604218
58 27.532139 494.788910 7.031097 0.000000 -0.000000 -0.000000 495.604218
59 27.532139 494.788910 7.031097 0.000000 -0.000000 -0.000000 495.604218
60 27.532139 494.788910 7.031097 0.000000 -0.000000 -0.000000 495.604218
61 27.532120 494.788727 7.031097 0.000000 -0.000000 -0.000000 495.604004
62 27.532139 494.788910 7.031097 0.000000 -0.000000 -0.000000 495.604218
[scope_part1]
57 -10.754299 87.338936 156.453094 -5.041633 -13.376588 1.169273 179.502960
58 -10.754299 87.338936 156.453094 -5.043162 -13.450438 1.175912 179.502960
59 -10.754299 87.338936 156.453094 -5.044808 -13.527485 1.183016 179.502960
60 -10.754299 87.338936 156.453094 -5.046456 -13.607327 1.190258 179.502960
61 -10.754318 87.338974 156.453094 -5.048239 -13.689512 1.197625 179.502975
62 -10.754299 87.338936 156.453094 -5.050045 -13.773941 1.205412 179.502960
[scope_part2]
57 -10.754299 82.597351 156.859894 -5.566456 28.189978 -2.636024 177.603500
58 -10.754299 82.597351 156.859894 -5.570894 28.275406 -2.645459 177.603500
59 -10.754299 82.597351 156.859894 -5.575586 28.364429 -2.655329 177.603500
60 -10.754299 82.597351 156.859894 -5.580434 28.456642 -2.665587 177.603500
61 -10.754318 82.597305 156.859894 -5.585458 28.551666 -2.676056 177.603470
62 -10.754299 82.597351 156.859894 -5.590684 28.649151 -2.686881 177.603500
[front_lower_left_part2]
57 -55.193634 141.618408 32.268219 0.000000 -0.000000 13.362872 155.381317
58 -55.193634 141.618408 32.268219 0.000000 -0.000000 13.430169 155.381317
59 -55.193634 141.618408 32.268219 0.000000 -0.000000 13.500978 155.381317
60 -55.193634 141.618408 32.268219 0.000000 -0.000000 13.573664 155.381317
61 -55.193516 141.618408 32.268372 0.000000 -0.000000 13.648217 155.381302
62 -55.193634 141.618408 32.268219 0.000000 -0.000000 13.724174 155.381317
[front_lower_left_part3]
57 -10.943831 108.509483 -11.125030 35.929615 -7.470345 -26.047569 109.625916
58 -10.943755 108.509483 -11.124877 35.925922 -7.490522 -26.019440 109.625893
59 -10.943755 108.509445 -11.124877 35.921371 -7.515712 -25.984417 109.625854
60 -10.943909 108.509445 -11.124877 35.915882 -7.545441 -25.942970 109.625870
61 -10.943755 108.509445 -11.125030 35.909702 -7.579493 -25.895576 109.625870
62 -10.943755 108.509521 -11.124877 35.902039 -7.621022 -25.837717 109.625931
[front_lower_right_part2]
57 55.193668 141.618195 32.268372 0.000000 0.000000 -17.668055 155.381149
58 55.193668 141.618195 32.268372 0.000000 0.000000 -17.717020 155.381149
59 55.193668 141.618195 32.268372 0.000000 0.000000 -17.767227 155.381149
60 55.193668 141.618195 32.268372 0.000000 0.000000 -17.818539 155.381149
61 55.193665 141.618195 32.268372 0.000000 0.000000 -17.871109 155.381149
62 55.193668 141.618195 32.268372 0.000000 0.000000 -17.923674 155.381149
[front_lower_right_part3]
57 10.943793 108.509483 -11.124877 35.460812 9.700842 22.908743 109.625893
58 10.943909 108.509521 -11.124877 35.456547 9.718436 22.883596 109.625938
59 10.943793 108.509521 -11.124573 35.451504 9.739322 22.853819 109.625900
60 10.943831 108.509445 -11.124725 35.445770 9.763193 22.819822 109.625847
61 10.943831 108.509521 -11.124877 35.439320 9.789931 22.781725 109.625931
62 10.943793 108.509521 -11.124725 35.432228 9.819122 22.740059 109.625916
[front_top_left_part2]
57 -84.949005 137.397156 57.168728 9.846740 0.620437 18.715363 171.355118
58 -85.075897 137.396835 57.175594 9.847288 0.610678 18.771599 171.420090
59 -85.205368 137.396622 57.182770 9.847825 0.600918 18.827829 171.486603
60 -85.336960 137.396317 57.190094 9.848374 0.590880 18.885454 171.554230
61 -85.470284 137.395935 57.197418 9.848927 0.580758 18.944021 171.622711
62 -85.604980 137.395706 57.204742 9.849526 0.570429 19.003056 171.692093
[front_top_left_part3]
57 -28.216400 149.656906 49.959717 -26.022228 -2.340686 -63.318687 160.278900
58 -28.216400 149.656906 49.959641 -26.023748 -2.322566 -63.281532 160.278885
59 -28.216400 149.656830 49.959564 -26.025442 -2.302640 -63.240704 160.278793
60 -28.216438 149.656738 49.959564 -26.027155 -2.281081 -63.196491 160.278717
61 -28.216400 149.656830 49.959717 -26.029060 -2.257959 -63.149158 160.278839
62 -28.216400 149.656906 49.959793 -26.031065 -2.232833 -63.097698 160.278931
[front_top_right_part2]
57 79.178467 137.566452 52.826992 8.083774 0.986329 -21.702927 167.285522
58 79.289215 137.566666 52.821045 8.082662 0.994912 -21.763538 167.336288
59 79.402435 137.566910 52.814789 8.081520 1.003664 -21.825422 167.388184
60 79.517860 137.567139 52.808376 8.080329 1.012657 -21.888561 167.441132
61 79.635017 137.567596 52.801971 8.079156 1.021787 -21.953039 167.495163
62 79.753616 137.567673 52.795410 8.077971 1.030915 -22.017517 167.549561
[front_top_right_part3]
57 28.216499 149.657059 49.959564 -25.881233 3.652141 66.016457 160.279022
58 28.216520 149.656982 49.959717 -25.883064 3.638114 65.987503 160.278992
59 28.216442 149.657059 49.959564 -25.885145 3.622465 65.955101 160.279007
60 28.216509 149.656830 49.959641 -25.887354 3.605151 65.919487 160.278839
61 28.216541 149.656982 49.959717 -25.889780 3.586458 65.880775 160.278992
62 28.216478 149.656906 49.959564 -25.892347 3.566480 65.839531 160.278870
